<mxfile host="app.diagrams.net" agent="Mozilla/5.0 (Windows NT 10.0; Win64; x64) AppleWebKit/537.36 (KHTML, like Gecko) Chrome/126.0.0.0 Safari/537.36" version="24.7.10">
  <diagram id="C5RBs43oDa-KdzZeNtuy" name="Page-1">
    <mxGraphModel dx="1287" dy="813" grid="1" gridSize="10" guides="1" tooltips="1" connect="1" arrows="1" fold="1" page="1" pageScale="1" pageWidth="827" pageHeight="1169" math="0" shadow="0">
      <root>
        <mxCell id="WIyWlLk6GJQsqaUBKTNV-0" />
        <mxCell id="WIyWlLk6GJQsqaUBKTNV-1" parent="WIyWlLk6GJQsqaUBKTNV-0" />
        <mxCell id="aUr_PLwHLf_4qL4r7stv-4" style="edgeStyle=orthogonalEdgeStyle;rounded=0;orthogonalLoop=1;jettySize=auto;html=1;exitX=0.5;exitY=1;exitDx=0;exitDy=0;entryX=0.5;entryY=0;entryDx=0;entryDy=0;" edge="1" parent="WIyWlLk6GJQsqaUBKTNV-1" source="aUr_PLwHLf_4qL4r7stv-2">
          <mxGeometry relative="1" as="geometry">
            <mxPoint x="413.9999999999998" y="180" as="targetPoint" />
          </mxGeometry>
        </mxCell>
        <mxCell id="aUr_PLwHLf_4qL4r7stv-2" value="Initialize String p to input, Stack s to [], and Int i = 0" style="rounded=1;whiteSpace=wrap;html=1;" vertex="1" parent="WIyWlLk6GJQsqaUBKTNV-1">
          <mxGeometry x="354" y="60" width="120" height="60" as="geometry" />
        </mxCell>
        <mxCell id="aUr_PLwHLf_4qL4r7stv-8" style="edgeStyle=orthogonalEdgeStyle;rounded=0;orthogonalLoop=1;jettySize=auto;html=1;exitX=0;exitY=0.5;exitDx=0;exitDy=0;entryX=0.5;entryY=0;entryDx=0;entryDy=0;" edge="1" parent="WIyWlLk6GJQsqaUBKTNV-1" source="aUr_PLwHLf_4qL4r7stv-6" target="aUr_PLwHLf_4qL4r7stv-7">
          <mxGeometry relative="1" as="geometry" />
        </mxCell>
        <mxCell id="aUr_PLwHLf_4qL4r7stv-25" style="edgeStyle=orthogonalEdgeStyle;rounded=0;orthogonalLoop=1;jettySize=auto;html=1;exitX=0.5;exitY=1;exitDx=0;exitDy=0;entryX=0.5;entryY=0;entryDx=0;entryDy=0;" edge="1" parent="WIyWlLk6GJQsqaUBKTNV-1" source="aUr_PLwHLf_4qL4r7stv-6" target="aUr_PLwHLf_4qL4r7stv-17">
          <mxGeometry relative="1" as="geometry" />
        </mxCell>
        <mxCell id="aUr_PLwHLf_4qL4r7stv-6" value="i &amp;lt; length of p" style="rhombus;whiteSpace=wrap;html=1;" vertex="1" parent="WIyWlLk6GJQsqaUBKTNV-1">
          <mxGeometry x="367" y="190" width="94" height="90" as="geometry" />
        </mxCell>
        <mxCell id="aUr_PLwHLf_4qL4r7stv-12" style="edgeStyle=orthogonalEdgeStyle;rounded=0;orthogonalLoop=1;jettySize=auto;html=1;entryX=0.5;entryY=0;entryDx=0;entryDy=0;" edge="1" parent="WIyWlLk6GJQsqaUBKTNV-1" source="aUr_PLwHLf_4qL4r7stv-7" target="aUr_PLwHLf_4qL4r7stv-10">
          <mxGeometry relative="1" as="geometry" />
        </mxCell>
        <mxCell id="aUr_PLwHLf_4qL4r7stv-13" style="edgeStyle=orthogonalEdgeStyle;rounded=0;orthogonalLoop=1;jettySize=auto;html=1;entryX=0.5;entryY=0;entryDx=0;entryDy=0;" edge="1" parent="WIyWlLk6GJQsqaUBKTNV-1" source="aUr_PLwHLf_4qL4r7stv-7" target="aUr_PLwHLf_4qL4r7stv-9">
          <mxGeometry relative="1" as="geometry" />
        </mxCell>
        <mxCell id="aUr_PLwHLf_4qL4r7stv-7" value="Is s empty" style="rhombus;whiteSpace=wrap;html=1;" vertex="1" parent="WIyWlLk6GJQsqaUBKTNV-1">
          <mxGeometry x="120" y="720" width="80" height="80" as="geometry" />
        </mxCell>
        <mxCell id="aUr_PLwHLf_4qL4r7stv-9" value="Return False" style="ellipse;whiteSpace=wrap;html=1;" vertex="1" parent="WIyWlLk6GJQsqaUBKTNV-1">
          <mxGeometry x="200" y="1040" width="120" height="80" as="geometry" />
        </mxCell>
        <mxCell id="aUr_PLwHLf_4qL4r7stv-10" value="Return True" style="ellipse;whiteSpace=wrap;html=1;" vertex="1" parent="WIyWlLk6GJQsqaUBKTNV-1">
          <mxGeometry y="1040" width="120" height="80" as="geometry" />
        </mxCell>
        <mxCell id="aUr_PLwHLf_4qL4r7stv-14" value="No" style="text;html=1;align=center;verticalAlign=middle;whiteSpace=wrap;rounded=0;" vertex="1" parent="WIyWlLk6GJQsqaUBKTNV-1">
          <mxGeometry x="190" y="875" width="50" height="20" as="geometry" />
        </mxCell>
        <mxCell id="aUr_PLwHLf_4qL4r7stv-15" value="Yes" style="text;html=1;align=center;verticalAlign=middle;whiteSpace=wrap;rounded=0;" vertex="1" parent="WIyWlLk6GJQsqaUBKTNV-1">
          <mxGeometry x="50" y="870" width="60" height="30" as="geometry" />
        </mxCell>
        <mxCell id="aUr_PLwHLf_4qL4r7stv-16" value="No" style="text;html=1;align=center;verticalAlign=middle;whiteSpace=wrap;rounded=0;" vertex="1" parent="WIyWlLk6GJQsqaUBKTNV-1">
          <mxGeometry x="230" y="200" width="60" height="30" as="geometry" />
        </mxCell>
        <mxCell id="aUr_PLwHLf_4qL4r7stv-24" style="edgeStyle=orthogonalEdgeStyle;rounded=0;orthogonalLoop=1;jettySize=auto;html=1;exitX=1;exitY=0.5;exitDx=0;exitDy=0;entryX=0;entryY=0.5;entryDx=0;entryDy=0;" edge="1" parent="WIyWlLk6GJQsqaUBKTNV-1" source="aUr_PLwHLf_4qL4r7stv-17" target="aUr_PLwHLf_4qL4r7stv-18">
          <mxGeometry relative="1" as="geometry" />
        </mxCell>
        <mxCell id="aUr_PLwHLf_4qL4r7stv-48" style="edgeStyle=orthogonalEdgeStyle;rounded=0;orthogonalLoop=1;jettySize=auto;html=1;exitX=0.5;exitY=1;exitDx=0;exitDy=0;entryX=0.5;entryY=0;entryDx=0;entryDy=0;" edge="1" parent="WIyWlLk6GJQsqaUBKTNV-1" source="aUr_PLwHLf_4qL4r7stv-17" target="aUr_PLwHLf_4qL4r7stv-33">
          <mxGeometry relative="1" as="geometry" />
        </mxCell>
        <mxCell id="aUr_PLwHLf_4qL4r7stv-17" value="Is p[i] equal to &#39;(&#39;, &#39;[&#39;, or &#39;{&#39;" style="rounded=1;whiteSpace=wrap;html=1;" vertex="1" parent="WIyWlLk6GJQsqaUBKTNV-1">
          <mxGeometry x="354" y="320" width="120" height="60" as="geometry" />
        </mxCell>
        <mxCell id="aUr_PLwHLf_4qL4r7stv-32" style="edgeStyle=orthogonalEdgeStyle;rounded=0;orthogonalLoop=1;jettySize=auto;html=1;exitX=1;exitY=0.5;exitDx=0;exitDy=0;entryX=0;entryY=0.5;entryDx=0;entryDy=0;" edge="1" parent="WIyWlLk6GJQsqaUBKTNV-1" source="aUr_PLwHLf_4qL4r7stv-18" target="aUr_PLwHLf_4qL4r7stv-30">
          <mxGeometry relative="1" as="geometry" />
        </mxCell>
        <mxCell id="aUr_PLwHLf_4qL4r7stv-18" value="Push parentheses[i] to s" style="rounded=0;whiteSpace=wrap;html=1;" vertex="1" parent="WIyWlLk6GJQsqaUBKTNV-1">
          <mxGeometry x="540" y="320" width="116" height="60" as="geometry" />
        </mxCell>
        <mxCell id="aUr_PLwHLf_4qL4r7stv-26" value="No" style="text;html=1;align=center;verticalAlign=middle;whiteSpace=wrap;rounded=0;" vertex="1" parent="WIyWlLk6GJQsqaUBKTNV-1">
          <mxGeometry x="430" y="400" width="60" height="30" as="geometry" />
        </mxCell>
        <mxCell id="aUr_PLwHLf_4qL4r7stv-27" value="Yes" style="text;html=1;align=center;verticalAlign=middle;whiteSpace=wrap;rounded=0;" vertex="1" parent="WIyWlLk6GJQsqaUBKTNV-1">
          <mxGeometry x="420" y="280" width="60" height="30" as="geometry" />
        </mxCell>
        <mxCell id="aUr_PLwHLf_4qL4r7stv-28" value="Yes" style="text;html=1;align=center;verticalAlign=middle;whiteSpace=wrap;rounded=0;" vertex="1" parent="WIyWlLk6GJQsqaUBKTNV-1">
          <mxGeometry x="480" y="320" width="60" height="30" as="geometry" />
        </mxCell>
        <mxCell id="aUr_PLwHLf_4qL4r7stv-65" style="edgeStyle=orthogonalEdgeStyle;rounded=0;orthogonalLoop=1;jettySize=auto;html=1;exitX=0.5;exitY=0;exitDx=0;exitDy=0;entryX=1;entryY=0.5;entryDx=0;entryDy=0;" edge="1" parent="WIyWlLk6GJQsqaUBKTNV-1" source="aUr_PLwHLf_4qL4r7stv-30" target="aUr_PLwHLf_4qL4r7stv-6">
          <mxGeometry relative="1" as="geometry" />
        </mxCell>
        <mxCell id="aUr_PLwHLf_4qL4r7stv-30" value="Increment i by 1" style="rounded=1;whiteSpace=wrap;html=1;" vertex="1" parent="WIyWlLk6GJQsqaUBKTNV-1">
          <mxGeometry x="690" y="320" width="120" height="60" as="geometry" />
        </mxCell>
        <mxCell id="aUr_PLwHLf_4qL4r7stv-38" style="edgeStyle=orthogonalEdgeStyle;rounded=0;orthogonalLoop=1;jettySize=auto;html=1;entryX=0.5;entryY=0;entryDx=0;entryDy=0;" edge="1" parent="WIyWlLk6GJQsqaUBKTNV-1" source="aUr_PLwHLf_4qL4r7stv-33" target="aUr_PLwHLf_4qL4r7stv-9">
          <mxGeometry relative="1" as="geometry" />
        </mxCell>
        <mxCell id="aUr_PLwHLf_4qL4r7stv-89" style="edgeStyle=orthogonalEdgeStyle;rounded=0;orthogonalLoop=1;jettySize=auto;html=1;exitX=0.5;exitY=1;exitDx=0;exitDy=0;entryX=0.5;entryY=0;entryDx=0;entryDy=0;" edge="1" parent="WIyWlLk6GJQsqaUBKTNV-1" source="aUr_PLwHLf_4qL4r7stv-33" target="aUr_PLwHLf_4qL4r7stv-35">
          <mxGeometry relative="1" as="geometry" />
        </mxCell>
        <mxCell id="aUr_PLwHLf_4qL4r7stv-33" value="Is s empty" style="rhombus;whiteSpace=wrap;html=1;" vertex="1" parent="WIyWlLk6GJQsqaUBKTNV-1">
          <mxGeometry x="374" y="440" width="80" height="80" as="geometry" />
        </mxCell>
        <mxCell id="aUr_PLwHLf_4qL4r7stv-78" style="edgeStyle=orthogonalEdgeStyle;rounded=0;orthogonalLoop=1;jettySize=auto;html=1;entryX=0.5;entryY=0;entryDx=0;entryDy=0;" edge="1" parent="WIyWlLk6GJQsqaUBKTNV-1" source="aUr_PLwHLf_4qL4r7stv-35" target="aUr_PLwHLf_4qL4r7stv-9">
          <mxGeometry relative="1" as="geometry" />
        </mxCell>
        <mxCell id="aUr_PLwHLf_4qL4r7stv-35" value="Is p[i] = &amp;#39;)&amp;#39; and the top of s not equal to &amp;#39;(&amp;#39;" style="rhombus;strokeWidth=0;align=center;whiteSpace=wrap;html=1;" vertex="1" parent="WIyWlLk6GJQsqaUBKTNV-1">
          <mxGeometry x="344" y="540" width="140" height="140" as="geometry" />
        </mxCell>
        <mxCell id="aUr_PLwHLf_4qL4r7stv-39" value="Yes" style="text;html=1;align=center;verticalAlign=middle;whiteSpace=wrap;rounded=0;" vertex="1" parent="WIyWlLk6GJQsqaUBKTNV-1">
          <mxGeometry x="290" y="440" width="60" height="30" as="geometry" />
        </mxCell>
        <mxCell id="aUr_PLwHLf_4qL4r7stv-45" value="No" style="text;html=1;align=center;verticalAlign=middle;whiteSpace=wrap;rounded=0;" vertex="1" parent="WIyWlLk6GJQsqaUBKTNV-1">
          <mxGeometry x="424" y="520" width="60" height="30" as="geometry" />
        </mxCell>
        <mxCell id="aUr_PLwHLf_4qL4r7stv-82" style="edgeStyle=orthogonalEdgeStyle;rounded=0;orthogonalLoop=1;jettySize=auto;html=1;entryX=0.5;entryY=1;entryDx=0;entryDy=0;" edge="1" parent="WIyWlLk6GJQsqaUBKTNV-1" source="aUr_PLwHLf_4qL4r7stv-49" target="aUr_PLwHLf_4qL4r7stv-30">
          <mxGeometry relative="1" as="geometry" />
        </mxCell>
        <mxCell id="aUr_PLwHLf_4qL4r7stv-49" value="Pop the top element of S" style="rounded=1;whiteSpace=wrap;html=1;" vertex="1" parent="WIyWlLk6GJQsqaUBKTNV-1">
          <mxGeometry x="690" y="890" width="120" height="60" as="geometry" />
        </mxCell>
        <mxCell id="aUr_PLwHLf_4qL4r7stv-59" value="Yes" style="text;html=1;align=center;verticalAlign=middle;whiteSpace=wrap;rounded=0;" vertex="1" parent="WIyWlLk6GJQsqaUBKTNV-1">
          <mxGeometry x="284" y="870" width="60" height="30" as="geometry" />
        </mxCell>
        <mxCell id="aUr_PLwHLf_4qL4r7stv-74" value="Yes" style="text;html=1;align=center;verticalAlign=middle;whiteSpace=wrap;rounded=0;" vertex="1" parent="WIyWlLk6GJQsqaUBKTNV-1">
          <mxGeometry x="280" y="555" width="60" height="30" as="geometry" />
        </mxCell>
        <mxCell id="aUr_PLwHLf_4qL4r7stv-75" value="Yes" style="text;html=1;align=center;verticalAlign=middle;whiteSpace=wrap;rounded=0;" vertex="1" parent="WIyWlLk6GJQsqaUBKTNV-1">
          <mxGeometry x="280" y="720" width="60" height="30" as="geometry" />
        </mxCell>
        <mxCell id="aUr_PLwHLf_4qL4r7stv-79" style="edgeStyle=orthogonalEdgeStyle;rounded=0;orthogonalLoop=1;jettySize=auto;html=1;exitX=0;exitY=0.5;exitDx=0;exitDy=0;" edge="1" parent="WIyWlLk6GJQsqaUBKTNV-1" source="aUr_PLwHLf_4qL4r7stv-76">
          <mxGeometry relative="1" as="geometry">
            <mxPoint x="260" y="1040" as="targetPoint" />
          </mxGeometry>
        </mxCell>
        <mxCell id="aUr_PLwHLf_4qL4r7stv-85" style="edgeStyle=orthogonalEdgeStyle;rounded=0;orthogonalLoop=1;jettySize=auto;html=1;exitX=0.5;exitY=1;exitDx=0;exitDy=0;entryX=0.5;entryY=0;entryDx=0;entryDy=0;" edge="1" parent="WIyWlLk6GJQsqaUBKTNV-1" source="aUr_PLwHLf_4qL4r7stv-76" target="aUr_PLwHLf_4qL4r7stv-77">
          <mxGeometry relative="1" as="geometry" />
        </mxCell>
        <mxCell id="aUr_PLwHLf_4qL4r7stv-76" value="Is p[i] = &#39;]&#39; and the top of s not equal to &#39;[&#39;" style="rhombus;strokeWidth=0;align=center;whiteSpace=wrap;html=1;" vertex="1" parent="WIyWlLk6GJQsqaUBKTNV-1">
          <mxGeometry x="344" y="700" width="140" height="140" as="geometry" />
        </mxCell>
        <mxCell id="aUr_PLwHLf_4qL4r7stv-80" style="edgeStyle=orthogonalEdgeStyle;rounded=0;orthogonalLoop=1;jettySize=auto;html=1;exitX=0;exitY=0.5;exitDx=0;exitDy=0;" edge="1" parent="WIyWlLk6GJQsqaUBKTNV-1" source="aUr_PLwHLf_4qL4r7stv-77">
          <mxGeometry relative="1" as="geometry">
            <mxPoint x="260" y="1040" as="targetPoint" />
          </mxGeometry>
        </mxCell>
        <mxCell id="aUr_PLwHLf_4qL4r7stv-81" style="edgeStyle=orthogonalEdgeStyle;rounded=0;orthogonalLoop=1;jettySize=auto;html=1;exitX=1;exitY=0.5;exitDx=0;exitDy=0;entryX=0;entryY=0.5;entryDx=0;entryDy=0;" edge="1" parent="WIyWlLk6GJQsqaUBKTNV-1" source="aUr_PLwHLf_4qL4r7stv-77" target="aUr_PLwHLf_4qL4r7stv-49">
          <mxGeometry relative="1" as="geometry" />
        </mxCell>
        <mxCell id="aUr_PLwHLf_4qL4r7stv-77" value="Is p[i] = &#39;]&#39; and the top of s not equal to &#39;{&#39;" style="rhombus;strokeWidth=0;align=center;whiteSpace=wrap;html=1;" vertex="1" parent="WIyWlLk6GJQsqaUBKTNV-1">
          <mxGeometry x="344" y="850" width="140" height="140" as="geometry" />
        </mxCell>
        <mxCell id="aUr_PLwHLf_4qL4r7stv-84" style="edgeStyle=orthogonalEdgeStyle;rounded=0;orthogonalLoop=1;jettySize=auto;html=1;exitX=0.5;exitY=1;exitDx=0;exitDy=0;entryX=0.498;entryY=0.035;entryDx=0;entryDy=0;entryPerimeter=0;" edge="1" parent="WIyWlLk6GJQsqaUBKTNV-1" source="aUr_PLwHLf_4qL4r7stv-35" target="aUr_PLwHLf_4qL4r7stv-76">
          <mxGeometry relative="1" as="geometry" />
        </mxCell>
        <mxCell id="aUr_PLwHLf_4qL4r7stv-86" value="No" style="text;html=1;align=center;verticalAlign=middle;whiteSpace=wrap;rounded=0;" vertex="1" parent="WIyWlLk6GJQsqaUBKTNV-1">
          <mxGeometry x="430" y="670" width="60" height="30" as="geometry" />
        </mxCell>
        <mxCell id="aUr_PLwHLf_4qL4r7stv-87" value="No" style="text;html=1;align=center;verticalAlign=middle;whiteSpace=wrap;rounded=0;" vertex="1" parent="WIyWlLk6GJQsqaUBKTNV-1">
          <mxGeometry x="440" y="830" width="60" height="30" as="geometry" />
        </mxCell>
      </root>
    </mxGraphModel>
  </diagram>
</mxfile>
